<svg width="221" height="139" viewBox="0 0 221 139" fill="none" xmlns="http://www.w3.org/2000/svg">
<path d="M105.154 51.7727C107.483 47.9717 112.931 47.6136 115.218 51.44C116.31 53.2668 117.124 55.2689 117.693 57.1419C118.122 58.8553 118.333 60.4902 118.266 62.2572C118.274 62.7625 118.282 63.2677 118.29 63.7729C118.274 67.0589 116.707 70.4198 115.579 73.3121C114.553 75.9434 112.621 78.9082 109.787 78.6627V78.6627C107.808 78.4914 106.237 76.8478 105.599 74.9828C104.793 72.6318 104.232 71.1322 103.315 68.5804C101.561 62.5896 102.14 57.2423 105.154 51.7727V51.7727Z" fill="#656C75"/>
<path d="M106.823 51.9855C108.284 49.6024 111.699 49.3779 113.133 51.777C113.818 52.9224 114.329 54.1776 114.685 55.352C114.954 56.4263 115.087 57.4513 115.044 58.5592C115.049 58.876 115.054 59.1928 115.059 59.5095C115.05 61.5698 114.067 63.6771 113.36 65.4905C112.717 67.1402 111.505 68.9991 109.728 68.8452V68.8452C108.487 68.7378 107.503 67.7073 107.102 66.538C106.597 65.0639 106.245 64.1237 105.671 62.5238C104.571 58.7676 104.934 55.4149 106.823 51.9855V51.9855Z" fill="white"/>
<path d="M33.6215 18.7033C38.1838 20.132 45.9245 22.219 51.3061 25.523C53.7966 27.052 58.1982 29.2025 60.6396 30.8813C62.0562 31.8555 65.909 34.2832 67.2713 35.2654C68.7552 36.3353 70.1453 37.4127 71.4468 38.4316C72.5269 39.2772 73.9242 40.318 74.8855 41.1108C76.5768 42.5057 77.7109 43.6008 79.061 44.7642C80.2465 45.7857 81.5526 46.6634 82.4996 47.4434C84.2653 49.0131 86.6606 51.0927 88.6401 53.0452C90.236 54.6194 92.2887 56.7564 93.7981 58.4035C97.0629 61.9662 99.4302 65.3235 100.305 67.7822C100.719 68.9475 100.479 70.2145 99.9756 71.3442C99.2932 72.8753 98.7733 73.2177 96.5 74.7148C94.535 75.94 92.2572 76.9763 88.8858 77.6449C84.7103 78.1321 80.766 77.3186 77.0961 76.9143C74.8855 76.6707 71.9381 75.9644 69.2363 75.6965C66.7801 75.4529 65.6011 75.6965 62.8502 77.6449C59.4116 80.0805 57.9378 81.0769 54.0079 81.7855C51.3061 82.2726 48.85 82.7597 45.1657 82.7597C41.9351 82.7597 39.5164 82.5161 37.3059 81.7855C35.6283 81.2309 33.4135 78.9602 32.3431 77.5501C32.0311 77.1391 31.7167 76.7255 31.4733 76.2704C30.6105 74.6573 30.3802 71.9509 29.9373 68.8768C29.3069 64.501 28.1372 63.4704 27.351 62.1963C27.0805 61.758 26.85 61.2951 26.5817 60.8554C25.7419 59.4797 25.6209 59.1077 24.7793 57.6731C23.7828 55.9742 23.3233 55.4584 22.8144 53.7761C22.239 51.8742 21.9631 51.309 21.519 50.2248C21.2277 49.5135 20.8746 48.8282 20.4795 48.1689C19.9814 47.3379 19.6049 46.6966 18.1476 45.2515C16.3601 43.4789 15.1905 41.5609 13.3221 40.0777C12.947 39.7799 12.5654 39.4841 12.2137 39.159C9.18612 36.3607 8.82707 36.0989 4.52256 33.4547C4.11134 33.2021 3.7103 32.9229 3.35593 32.5953C2.03477 31.3738 1.7151 30.5461 1.19993 29.6637C0.859287 28.9881 0.636761 28.6639 0.450447 28.1225C0.250252 27.5408 0.0842783 26.9387 0.0286588 26.326C-0.0658594 25.2848 0.0933112 23.9468 0.217494 23.3311C0.708729 20.8955 0.708789 20.652 2.91929 18.9471C3.62889 18.3998 3.96445 18.2624 4.81071 17.8185C5.51837 17.4473 6.25317 17.1233 7.03573 16.9616C8.68591 16.6206 10.7576 16.376 12.2527 16.2679C15.051 16.0656 20.8494 16.0244 23.5512 16.2679C26.9898 16.5778 31.6909 17.9631 33.6215 18.7033Z" fill="white"/>
<path d="M98.2681 81.6498C99.3877 82.3539 100.349 83.3128 100.846 84.5385C104.118 92.6118 101.83 109.283 100.921 111.987C99.6933 117.345 99.6933 117.345 97.4828 123.191C96.5186 125.741 95.3964 127.208 94.7809 128.549C93.6046 131.113 92.6347 133.518 90.1142 134.882C87.8027 136.132 85.8508 136.134 83.3357 136.261C82.4547 136.306 81.5884 136.496 80.7551 136.785C78.0469 137.724 76.1964 138.198 73.4121 137.561C71.2977 136.968 68.8875 136.331 67.4536 133.928C66.9001 133.001 66.5018 131.663 65.4222 131.689C65.2331 131.694 65.0352 131.715 64.8155 131.715C58.8747 131.715 56.8738 126.844 56.2188 124.896C55.788 123.614 52.9746 124.014 51.3718 122.887C50.7045 122.417 50.279 121.677 49.7909 121.023C49.1646 120.184 48.9828 119.619 48.5807 118.155C48.4329 117.617 48.2496 117.085 47.9741 116.6C46.5737 114.135 45.0248 113.661 46.1484 108.09C47.3344 103.62 43.9381 104.149 46.1391 97.6075C46.301 97.1263 46.5151 96.6628 46.7705 96.2241C48.4648 93.3139 51.0795 89.7263 54.4993 86.9004C57.4467 84.4648 59.6573 82.6163 63.096 81.0549C66.3779 79.8968 68.4996 79.3503 76.1138 79.1066C80.0437 78.9809 81.2718 79.1066 83.9737 79.3503C94.1387 80.2669 94.6597 79.3803 98.2681 81.6498Z" fill="white"/>
<path d="M186.796 18.8711C182.234 20.2997 174.494 22.3867 169.112 25.6907C166.621 27.2197 162.22 29.3702 159.778 31.049C158.362 32.0232 154.509 34.4509 153.147 35.4331C151.663 36.503 150.273 37.5804 148.971 38.5994C147.891 39.4449 146.494 40.4857 145.532 41.2785C143.841 42.6734 142.707 43.7686 141.357 44.9319C140.171 45.9534 138.865 46.8312 137.918 47.6111C136.153 49.1808 133.757 51.2604 131.778 53.213C130.182 54.7871 128.129 56.9242 126.62 58.5713C123.355 62.134 120.988 65.4912 120.113 67.9499C119.699 69.1153 119.939 70.3822 120.442 71.5119C121.125 73.043 121.645 73.3854 123.918 74.8825C125.883 76.1078 128.161 77.144 131.532 77.8127C135.708 78.2998 139.652 77.4863 143.322 77.082C145.532 76.8384 148.48 76.1321 151.182 75.8642C153.638 75.6206 154.817 75.8642 157.568 77.8127C161.006 80.2483 162.48 81.2446 166.41 81.9532C169.112 82.4403 171.568 82.9274 175.252 82.9274C178.483 82.9274 180.902 82.6839 183.112 81.9532C184.79 81.3987 187.004 79.1279 188.075 77.7178C188.387 77.3068 188.701 76.8932 188.945 76.4382C189.807 74.8251 190.038 72.1187 190.481 69.0445C191.111 64.6688 192.281 63.6381 193.067 62.3641C193.337 61.9257 193.568 61.4628 193.836 61.0232C194.676 59.6474 194.797 59.2754 195.639 57.8408C196.635 56.1419 197.095 55.6261 197.604 53.9438C198.179 52.042 198.455 51.4767 198.899 50.3925C199.19 49.6812 199.543 48.996 199.938 48.3366C200.437 47.5056 200.813 46.8643 202.27 45.4192C204.058 43.6466 205.228 41.7286 207.096 40.2455C207.471 39.9477 207.853 39.6518 208.204 39.3267C211.232 36.5284 211.591 36.2666 215.895 33.6224C216.307 33.3698 216.708 33.0906 217.062 32.763C218.383 31.5415 218.703 30.7138 219.218 29.8314C219.559 29.1558 219.781 28.8316 219.968 28.2902C220.168 27.7085 220.334 27.1064 220.389 26.4937C220.484 25.4526 220.325 24.1145 220.2 23.4989C219.709 21.0633 219.709 20.8197 217.499 19.1148C216.789 18.5675 216.454 18.4301 215.607 17.9863C214.9 17.6151 214.165 17.2911 213.382 17.1293C211.732 16.7883 209.66 16.5437 208.165 16.4356C205.367 16.2333 199.569 16.1921 196.867 16.4356C193.428 16.7455 188.727 18.1308 186.796 18.8711Z" fill="white"/>
<path d="M122.15 81.817C121.03 82.5212 120.069 83.48 119.572 84.7058C116.3 92.779 118.588 109.45 119.497 112.154C120.725 117.513 120.725 117.513 122.935 123.358C123.899 125.908 125.022 127.375 125.637 128.716C126.813 131.28 127.783 133.686 130.304 135.049C132.615 136.299 134.567 136.302 137.082 136.429C137.963 136.473 138.83 136.663 139.663 136.952C142.371 137.891 144.222 138.365 147.006 137.728C149.12 137.135 151.53 136.498 152.964 134.096C153.518 133.168 153.916 131.83 154.996 131.856C155.185 131.861 155.383 131.883 155.603 131.883C161.543 131.883 163.544 127.012 164.199 125.063C164.63 123.781 167.443 124.181 169.046 123.054C169.713 122.585 170.139 121.844 170.627 121.191C171.253 120.352 171.435 119.786 171.837 118.322C171.985 117.784 172.168 117.252 172.444 116.767C173.844 114.302 175.393 113.828 174.27 108.257C173.084 103.788 176.48 104.317 174.279 97.7747C174.117 97.2935 173.903 96.8301 173.647 96.3914C171.953 93.4811 169.338 89.8936 165.919 87.0676C162.971 84.632 160.761 82.7836 157.322 81.2222C154.04 80.064 151.918 79.5175 144.304 79.2739C140.374 79.1481 139.146 79.2739 136.444 79.5175C126.279 80.4341 125.758 79.5476 122.15 81.817Z" fill="white"/>
<rect x="106.599" y="79.9131" width="7.8598" height="36.0468" rx="3.9299" fill="white"/>
<rect x="108.563" y="95.9878" width="3.9299" height="18.0234" rx="1.96495" fill="#656C75"/>
<path d="M138.946 10.6691C141.473 12.1833 144.764 11.3719 146.297 8.85675C147.83 6.34159 147.024 3.07515 144.498 1.56094C141.971 0.0467287 138.681 0.858153 137.148 3.37331C135.615 5.88846 136.42 9.1549 138.946 10.6691ZM120.599 22.9206L121.526 23.2996L121.536 23.2744L121.545 23.2487L120.599 22.9206ZM114.36 47.5565C118.962 43.7746 119.995 39.2485 120.28 34.9165C120.351 33.8413 120.376 32.7706 120.398 31.7314C120.419 30.6853 120.437 29.6754 120.492 28.6877C120.601 26.7098 120.854 24.9097 121.526 23.2996L119.672 22.5417C118.871 24.4632 118.602 26.5294 118.488 28.5855C118.431 29.6148 118.413 30.6636 118.391 31.6973C118.37 32.7379 118.345 33.7678 118.278 34.7934C118.01 38.8641 117.078 42.7408 113.084 46.0222L114.36 47.5565ZM121.545 23.2487C124.644 14.503 132.694 7.11161 141.719 7.11172L141.726 5.11833C131.592 5.11821 122.94 13.3144 119.653 22.5926L121.545 23.2487Z" fill="white"/>
<path d="M79.9002 10.6252C77.3737 12.1394 74.0828 11.328 72.5498 8.8128C71.0168 6.29765 71.8222 3.0312 74.3487 1.51699C76.8752 0.00278339 80.1661 0.814208 81.6991 3.32936C83.2321 5.84451 82.4267 9.11096 79.9002 10.6252ZM98.2477 22.8767L97.3211 23.2557L97.3106 23.2305L97.3014 23.2047L98.2477 22.8767ZM104.487 47.5125C99.8842 43.7306 98.8516 39.2046 98.5667 34.8725C98.496 33.7974 98.4707 32.7267 98.4492 31.6875C98.4275 30.6414 98.4095 29.6314 98.355 28.6438C98.2459 26.6659 97.9929 24.8657 97.3211 23.2557L99.1743 22.4977C99.9761 24.4192 100.245 26.4855 100.359 28.5415C100.415 29.5708 100.434 30.6197 100.455 31.6533C100.477 32.6939 100.502 33.7239 100.569 34.7494C100.837 38.8201 101.769 42.6969 105.763 45.9782L104.487 47.5125ZM97.3014 23.2047C94.2027 14.459 86.1529 7.06766 77.128 7.06778L77.121 5.07439C87.2542 5.07426 95.9065 13.2705 99.1939 22.5487L97.3014 23.2047Z" fill="white"/>
<path d="M149.414 53.1542C150.594 57.079 149.062 61.7186 147.163 65.1889C146.314 66.5756 145.373 67.7711 144.162 68.873C143.834 69.2055 143.506 69.5381 143.178 69.8708C139.668 73.2861 134.599 74.5426 129.793 74.5546C129.158 74.522 129.158 74.522 128.658 74.2764C127.53 70.9538 128.729 66.4185 130.205 63.3622C133.011 58.3517 136.919 55.2576 142.501 53.6493C144.82 53.0937 147.046 53.0782 149.414 53.1542Z" fill="#656C75"/>
<path d="M71.1515 53.1542C69.9717 57.079 71.503 61.7186 73.4022 65.1889C74.2518 66.5756 75.1925 67.7711 76.403 68.873C76.7313 69.2055 77.0595 69.5381 77.3876 69.8708C80.8975 73.2861 85.9665 74.5426 90.7722 74.5546C91.4072 74.522 91.4072 74.522 91.9073 74.2764C93.035 70.9538 91.8369 66.4185 90.36 63.3622C87.5541 58.3517 83.6465 55.2576 78.0646 53.6493C75.7459 53.0937 73.5196 53.0782 71.1515 53.1542Z" fill="#656C75"/>
<path opacity="0.9" d="M95.7579 86.6552C91.7999 85.4853 87.1211 87.0037 83.6214 88.8869C82.223 89.7295 81.0174 90.6623 79.9062 91.8626C79.5708 92.1882 79.2354 92.5136 78.9 92.839C75.4557 96.3195 74.1886 101.346 74.1766 106.111C74.2095 106.741 74.2095 106.741 74.4572 107.237C77.8078 108.355 82.3815 107.167 85.4636 105.703C90.5164 102.92 93.6367 99.0454 95.2586 93.5103C95.8189 91.211 95.8345 89.0034 95.7579 86.6552Z" fill="#656C75"/>
<path opacity="0.9" d="M122.843 85.6813C126.801 84.5114 131.48 86.0298 134.979 87.9131C136.378 88.7556 137.583 89.6884 138.694 90.8887C139.03 91.2143 139.365 91.5398 139.701 91.8651C143.145 95.3456 144.412 100.372 144.424 105.138C144.391 105.767 144.391 105.767 144.143 106.263C140.793 107.381 136.219 106.193 133.137 104.729C128.084 101.946 124.964 98.0715 123.342 92.5364C122.782 90.2371 122.766 88.0295 122.843 85.6813Z" fill="#656C75"/>
</svg>
