<svg width="100" height="100" viewBox="0 0 100 100" fill="none" xmlns="http://www.w3.org/2000/svg">
<path d="M47.9511 16.3555C50.086 18.2389 51.3686 21.0636 51.6044 23.8409C51.6874 27.2535 50.7349 29.7971 48.4643 32.3912C48.3003 32.5873 48.1362 32.7833 47.9672 32.9853C47.438 33.3935 47.438 33.3935 46.7966 33.3984C45.033 32.696 44.0535 30.6657 43.3488 29.04C42.3248 26.4706 42.1116 23.5878 43.0642 20.9507C45.515 15.6014 45.515 15.6014 47.9511 16.3555Z" fill="white"/>
<path d="M47.9511 61.957C50.086 63.8404 51.3686 66.6652 51.6044 69.4425C51.6874 72.8551 50.7349 75.3987 48.4643 77.9928C48.3003 78.1888 48.1362 78.3849 47.9672 78.5869C47.438 78.995 47.438 78.995 46.7966 78.9999C45.033 78.2976 44.0535 76.2673 43.3488 74.6416C42.3248 72.0722 42.1116 69.1894 43.0642 66.5523C45.515 61.203 45.515 61.203 47.9511 61.957Z" fill="white"/>
<path d="M61.5476 45.6304C63.4763 43.5457 66.3688 42.2931 69.2128 42.0629C72.7074 41.9819 75.3121 42.912 77.9685 45.1293C78.1693 45.2895 78.37 45.4497 78.5769 45.6148C78.9948 46.1316 78.9948 46.1316 78.9998 46.7579C78.2806 48.4801 76.2016 49.4366 74.5368 50.1248C71.9057 51.1248 68.9536 51.333 66.2532 50.4028C60.7754 48.0095 60.7754 48.0095 61.5476 45.6304Z" fill="white"/>
<path d="M15.364 45.6304C17.2927 43.5457 20.1852 42.2931 23.0292 42.0629C26.5238 41.9819 29.1285 42.912 31.7849 45.1293C31.9857 45.2895 32.1864 45.4497 32.3933 45.6148C32.8112 46.1316 32.8112 46.1316 32.8162 46.7579C32.097 48.4801 30.018 49.4366 28.3532 50.1248C25.7221 51.1248 22.77 51.333 20.0696 50.4028C14.5918 48.0095 14.5918 48.0095 15.364 45.6304Z" fill="white"/>
<path d="M69.7058 24.8031C70.9163 28.807 69.3452 33.5402 67.3966 37.0804C66.5248 38.4951 65.5597 39.7147 64.3177 40.8388C63.9809 41.178 63.6441 41.5173 63.3074 41.8567C59.7062 45.3409 54.5053 46.6227 49.5746 46.6349C48.9231 46.6016 48.9231 46.6016 48.41 46.3511C47.253 42.9615 48.4822 38.3348 49.9975 35.2169C52.8764 30.1054 56.8857 26.9488 62.6129 25.3081C64.9919 24.7413 67.2762 24.7255 69.7058 24.8031Z" fill="#656C75"/>
<path d="M24.4046 24.8031C23.1941 28.807 24.7651 33.5402 26.7137 37.0804C27.5855 38.4951 28.5507 39.7147 29.7927 40.8388C30.1295 41.178 30.4662 41.5173 30.8029 41.8567C34.4042 45.3409 39.6051 46.6227 44.5358 46.6349C45.1872 46.6016 45.1872 46.6016 45.7004 46.3511C46.8574 42.9615 45.6282 38.3348 44.1128 35.2169C41.234 30.1054 37.2246 26.9488 31.4975 25.3081C29.1184 24.7413 26.8342 24.7255 24.4046 24.8031Z" fill="#656C75"/>
<path d="M48.3772 48.4224C47.1667 52.4264 48.7378 57.1595 50.6864 60.6998C51.5582 62.1145 52.5233 63.3341 53.7653 64.4582C54.1022 64.7974 54.4389 65.1367 54.7756 65.4761C58.3768 68.9603 63.5777 70.2421 68.5084 70.2543C69.1599 70.221 69.1599 70.221 69.6731 69.9705C70.8301 66.5809 69.6008 61.9541 68.0855 58.8363C65.2066 53.7248 61.1973 50.5682 55.4701 48.9275C53.0911 48.3607 50.8069 48.3449 48.3772 48.4224Z" fill="#656C75"/>
<path d="M24.4046 70.2206C23.1941 66.2167 24.7651 61.4835 26.7137 57.9433C27.5855 56.5286 28.5507 55.309 29.7927 54.1849C30.1295 53.8457 30.4662 53.5064 30.8029 53.167C34.4042 49.6828 39.6051 48.4009 44.5358 48.3888C45.1872 48.422 45.1872 48.422 45.7004 48.6726C46.8574 52.0622 45.6282 56.6889 44.1128 59.8068C41.234 64.9183 37.2246 68.0749 31.4975 69.7156C29.1184 70.2824 26.8342 70.2982 24.4046 70.2206Z" fill="#656C75"/>
</svg>
