<svg width="530" height="78" viewBox="0 0 530 78" fill="none" xmlns="http://www.w3.org/2000/svg">
<path d="M274 0.771973H349V46.772H304V30.772H334V16.772H289V60.772H349V76.772H274V0.771973ZM184 0.771973H199V30.772H244V0.771973H259V76.772H244V46.772H199V76.772H184V0.771973Z" fill="#FEFEFE"/>
<path d="M393 0.771973H410C413.787 10.236 417.569 19.7018 421.343 29.1706C423.096 33.5671 424.851 37.9627 426.61 42.3567C428.307 46.5954 429.998 50.836 431.687 55.0781C432.332 56.6979 432.98 58.3171 433.629 59.9355C434.537 62.1985 435.438 64.464 436.338 66.7302C436.609 67.402 436.88 68.0738 437.16 68.766C438.28 71.6046 439 73.6883 439 76.772H401V60.772H415L402 27.772C400.275 30.3595 399.235 32.4709 398.121 35.3352C397.76 36.2559 397.4 37.1766 397.029 38.1253C396.646 39.116 396.262 40.1067 395.867 41.1274C395.272 42.6526 395.272 42.6526 394.665 44.2086C393.398 47.4576 392.137 50.7085 390.875 53.9595C390.017 56.1621 389.159 58.3646 388.301 60.5669C386.197 65.9671 384.097 71.3691 382 76.772H364C364.8 71.972 365.879 68.0893 367.684 63.665C367.957 62.9814 368.23 62.2978 368.512 61.5934C369.41 59.3511 370.316 57.1124 371.223 54.8735C371.85 53.3129 372.476 51.7521 373.102 50.191C374.745 46.0954 376.396 42.0027 378.048 37.9106C379.735 33.7295 381.415 29.5455 383.096 25.3618C386.39 17.1625 389.693 8.96653 393 0.771973Z" fill="#FCFCFC"/>
<path d="M76 0V16C62.5111 21.3083 48.942 26.3668 35.322 31.3276C32.8063 32.2447 30.2917 33.1651 27.7773 34.0859C26.623 34.5046 26.623 34.5046 25.4453 34.9317C21.9569 36.0083 21.957 36.0083 19 38C19.6551 38.2461 20.3102 38.4922 20.9852 38.7458C27.1655 41.0682 33.3451 43.3926 39.5238 45.7194C42.7002 46.9155 45.8768 48.1108 49.0542 49.3042C52.7089 50.677 56.3623 52.0532 60.0156 53.4297C61.1543 53.8568 62.293 54.284 63.4661 54.7241C64.5269 55.1244 65.5877 55.5246 66.6807 55.937C67.6133 56.2879 68.546 56.6387 69.5069 57.0002C71.7198 57.8876 73.8675 58.9338 76 60V76C67.8332 73.4119 59.9168 70.2472 51.9727 67.0547C50.5331 66.4782 49.0934 65.902 47.6537 65.326C44.6551 64.1256 41.6572 62.9236 38.6599 61.7202C34.8152 60.1766 30.9692 58.6361 27.1228 57.0966C24.1586 55.9101 21.1948 54.7226 18.2311 53.5348C16.8122 52.9661 15.3932 52.3975 13.9741 51.8291C11.9994 51.0379 10.0251 50.2454 8.05103 49.4526C6.92789 49.002 5.80478 48.5514 4.64761 48.0871C3.07665 47.4421 1.51895 46.7595 0 46V30C8.48541 26.0545 17.088 22.4878 25.7852 19.043C27.1772 18.4897 28.5691 17.9364 29.961 17.3829C32.8521 16.234 35.744 15.0871 38.6365 13.9417C42.3471 12.4719 46.0554 10.9966 49.7631 9.51971C52.6248 8.38065 55.4878 7.24479 58.3511 6.10986C59.7203 5.56666 61.0891 5.02241 62.4574 4.47708C64.3584 3.71997 66.2613 2.96764 68.1643 2.21558C69.2459 1.78653 70.3275 1.35751 71.4418 0.915466C74 1.52588e-05 74 0 76 0ZM454 0C462.176 2.59265 470.106 5.75489 478.062 8.94531C479.504 9.52171 480.947 10.0979 482.389 10.674C485.391 11.8743 488.394 13.0764 491.395 14.2798C495.248 15.8246 499.104 17.3647 502.959 18.9034C505.928 20.0888 508.896 21.2766 511.864 22.4652C513.286 23.0345 514.709 23.6031 516.132 24.1709C518.11 24.9605 520.086 25.7535 522.062 26.5474C523.188 26.998 524.313 27.4486 525.473 27.9129C528 29 528 29 529 30C529.073 32.6965 529.092 35.3669 529.062 38.0625C529.058 38.8211 529.053 39.5797 529.049 40.3613C529.037 42.2409 529.019 44.1205 529 46C520.52 49.978 511.888 53.5157 503.18 56.957C501.785 57.5102 500.391 58.0636 498.997 58.6171C496.101 59.7659 493.205 60.9129 490.309 62.0583C486.589 63.5292 482.872 65.0041 479.155 66.4803C476.288 67.6182 473.421 68.7545 470.554 69.8901C469.181 70.4339 467.809 70.9782 466.437 71.5229C464.533 72.2784 462.627 73.0315 460.722 73.7844C459.638 74.2135 458.555 74.6425 457.438 75.0845C455 76 455 76 454 76V60C460.227 57.1747 466.494 54.5924 472.891 52.1797C473.798 51.835 474.706 51.4902 475.641 51.135C478.51 50.046 481.38 48.9604 484.25 47.875C487.134 46.7818 490.018 45.6878 492.902 44.5935C494.688 43.9161 496.474 43.2393 498.261 42.5634C502.188 41.0763 506.109 39.5805 510 38C497.801 32.6857 485.27 28.231 472.788 23.6367C469.885 22.5673 466.984 21.4947 464.082 20.4219C463.184 20.0927 462.286 19.7636 461.362 19.4245C460.539 19.1204 459.717 18.8163 458.87 18.5029C458.145 18.236 457.419 17.9691 456.672 17.694C455 17 455 17 454 16C453.927 13.3035 453.908 10.6331 453.938 7.9375C453.942 7.17889 453.947 6.42027 453.951 5.63867C453.963 3.75908 453.981 1.87953 454 0Z" fill="#FBFBFB"/>
<path d="M169 0.77195C167.322 4.63421 164.797 7.75874 162.188 11.022C161.705 11.6304 161.223 12.2388 160.727 12.8657C156.475 18.2149 152.16 23.5115 147.841 28.8059C143.871 33.6789 139.966 38.5987 136.096 43.551C133.747 46.5546 131.386 49.5474 129 52.5219C128.496 53.1515 127.992 53.781 127.473 54.4297C126.454 55.694 125.427 56.9523 124.392 58.2041C121.911 61.2331 119.675 64.2094 117.723 67.6079C115.514 71.2854 113.479 74.1433 110 76.7719C103.446 78.2837 96.6169 77.5858 90 76.7719C91.3315 73.8935 92.833 71.58 94.8711 69.1548C95.7238 68.1319 95.7238 68.1319 96.5938 67.0884C97.2022 66.3652 97.8106 65.642 98.4375 64.8969C102.868 59.5784 107.254 54.239 111.5 48.7719C116.229 42.6951 121.107 36.7485 126.013 30.8137C129.093 27.0876 132.164 23.357 135.188 19.5844C135.804 18.8407 136.42 18.0969 137.055 17.3305C138.621 15.2705 139.93 13.2663 141.258 11.0571C148.686 -0.636032 155.709 -0.963436 169 0.77195Z" fill="#FCFCFC"/>
</svg>
