<svg width="15" height="26" viewBox="0 0 15 26" fill="none" xmlns="http://www.w3.org/2000/svg">
<path d="M2.86484 0.499933L14.0982 11.6999C14.2315 11.8333 14.3257 11.9777 14.3808 12.1333C14.4368 12.2888 14.4648 12.4555 14.4648 12.6333C14.4648 12.811 14.4368 12.9777 14.3808 13.1333C14.3257 13.2888 14.2315 13.4333 14.0982 13.5666L2.86484 24.7999C2.55373 25.111 2.16484 25.2666 1.69818 25.2666C1.23151 25.2666 0.831511 25.0999 0.498178 24.7666C0.164844 24.4333 -0.00182247 24.0444 -0.00182247 23.5999C-0.00182247 23.1555 0.164844 22.7666 0.498178 22.4333L10.2982 12.6333L0.498178 2.83327C0.187066 2.52216 0.0315104 2.13904 0.0315104 1.68393C0.0315104 1.22793 0.198177 0.833267 0.53151 0.499933C0.864844 0.1666 1.25373 -6.67572e-05 1.69818 -6.67572e-05C2.14262 -6.67572e-05 2.53151 0.1666 2.86484 0.499933Z" fill="white"/>
</svg>
